@startuml DMN
title DMN
hide empty members
skinparam classAttributeIconSize 0
skinparam linetype ortho
left to right direction

package "DMN" {
  abstract class "Artifact" as C__17_0_2_3_ea50349_1446148893171_814063_3320 {
  }
  class "Association" as C__17_0_2_3_ea50349_1446149593384_597231_3718 {
    +associationDirection : AssociationDirection
  }
  class "AuthorityRequirement" as C__17_0_3_1_42401a5_1375643567487_81965_3021 {
  }
  class "Binding" as C__17_0_3_1_42401a5_1375643567471_547100_3019 {
  }
  abstract class "BusinessContextElement" as C__17_0_3_1_42401a5_1375643567471_704933_3016 {
    +URI : URI [0..1]
  }
  class "BusinessKnowledgeModel" as C__17_0_3_1_42401a5_1375643567518_805465_3028 {
  }
  class "ChildExpression" as C__2021x_1_17c4044b_1633546848140_954943_1751 {
    +id : ID [0..1]
  }
  class "Conditional" as C__2021x_1_17c4044b_1633547026114_611120_1867 {
  }
  class "Context" as C__17_0_3_1_42401a5_1376065040042_783613_2859 {
  }
  class "ContextEntry" as C__17_0_3_1_42401a5_1376065040043_665764_2860 {
  }
  abstract class "DMNElement" as C__17_0_3_1_42401a5_1375643567533_785225_3034 {
    +id : ID [0..1]
    +description : String [0..1]
    +label : String [0..1]
  }
  abstract class "DRGElement" as C__17_0_3_1_42401a5_1375643567487_57930_3022 {
  }
  class "Decision" as C__17_0_3_1_42401a5_1375643567518_778757_3029 {
    +question : String [0..1]
    +allowedAnswers : String [0..1]
  }
  class "DecisionRule" as C__17_0_3_1_42401a5_1375643567533_356231_3074 {
  }
  class "DecisionService" as C__17_0_2_3_ea50349_1446061872919_943804_4285 {
  }
  class "DecisionTable" as C__17_0_3_1_42401a5_1375643567533_722733_3073 {
    +hitPolicy : HitPolicy
    +aggregation : BuiltinAggregator [0..1]
    +preferredOrientation : DecisionTableOrientation [0..1]
    +outputLabel : String [0..1]
  }
  class "Definitions" as C__17_0_3_1_42401a5_1375643567471_779757_3017 {
    +namespace : URI
    +expressionLanguage : URI [0..1]
    +typeLanguage : URI [0..1]
    +exporter : String [0..1]
    +exporterVersion : String [0..1]
    +dmnVersion : String
  }
  abstract class "Element" as C__17_0_2_3_ea50349_1446066767165_84469_5739 {
  }
  class "ElementCollection" as C__17_0_3_1_42401a5_1375643567518_346753_3024 {
  }
  class "Every" as C__2021x_1_17c4044b_1633549068199_322352_2794 {
  }
  abstract class "Expression" as C__17_0_3_1_42401a5_1375643567533_685035_3031 {
    +typeRef : String [0..1]
  }
  class "ExtensionAttribute" as C__17_0_2_3_ea50349_1446065137709_415078_5036 {
    +name : String
  }
  class "ExtensionElements" as C__17_0_2_3_ea50349_1446065085526_636721_5008 {
  }
  class "Filter" as C__2021x_1_17c4044b_1633546941899_386399_1784 {
  }
  class "For" as C__2021x_1_17c4044b_1633549030307_422373_2718 {
  }
  class "FunctionDefinition" as C__17_0_3_1_42401a5_1376065040041_514072_2858 {
    +kind : FunctionKind
  }
  class "FunctionItem" as C__17_0_5_1_a250249_1570480208079_716058_5167 {
    +outputTypeRef : String [0..1]
  }
  class "Group" as C__17_0_5_1_63c021c_1555996107355_533785_3718 {
    +name : String [0..1]
  }
  class "Import" as C__17_0_3_1_42401a5_1375643567518_968543_3026 {
    +importType : URI
    +locationURI : URI [0..1]
    +namespace : URI
  }
  class "ImportedValues" as C__17_0_2_3_ea50349_1438213998731_424666_2410 {
    +expressionLanguage : URI [0..1]
    +importedElement : String [0..1]
  }
  class "InformationItem" as C__17_0_3_1_42401a5_1375643567471_704658_3020 {
    +typeRef : String [0..1]
  }
  class "InformationRequirement" as C__17_0_3_1_42401a5_1375643567533_147800_3033 {
  }
  class "InputClause" as C__17_0_3_1_42401a5_1375643567533_326599_3076 {
  }
  class "InputData" as C__17_0_3_1_42401a5_1375643567471_970532_3014 {
  }
  abstract class "Invocable" as C__17_0_5_1_a250249_1491345194592_541539_3976 {
  }
  class "Invocation" as C__17_0_3_1_42401a5_1375643567518_521440_3023 {
  }
  class "ItemDefinition" as C__17_0_3_1_42401a5_1375643567533_707974_3032 {
    +typeLanguage : URI [0..1]
    +typeRef : String [0..1]
    +isCollection : Boolean [0..1]
    +isRange : Boolean [0..1]
  }
  class "Iterator" as C__2021x_1_17c4044b_1633546981223_825324_1819 {
  }
  class "KnowledgeRequirement" as C__17_0_3_1_42401a5_1375643567518_966437_3025 {
  }
  class "KnowledgeSource" as C__17_0_3_1_42401a5_1375643567471_416068_3018 {
    +type : String [0..1]
    +locationURI : URI [0..1]
  }
  class "List" as C__17_0_3_1_42401a5_1376065040044_287935_2861 {
  }
  class "LiteralExpression" as C__17_0_3_1_42401a5_1375643567518_12261_3030 {
    +expressionLanguage : URI [0..1]
    +text : String [0..1]
  }
  abstract class "NamedElement" as C__17_0_2_3_ea50349_1436221723919_427603_4116 {
    +name : String
  }
  class "OrganisationalUnit" as C__17_0_3_1_42401a5_1375643567518_889981_3027 {
  }
  class "OutputClause" as C__17_0_2_3_ea50349_1435270731630_237729_3380 {
    +name : String [0..1]
    +typeRef : String [0..1]
  }
  class "PerformanceIndicator" as C__17_0_3_1_42401a5_1375643567471_164263_3015 {
  }
  class "Quantified" as C__2021x_1_17c4044b_1633549042213_958987_2756 {
  }
  class "Relation" as C__17_0_3_1_42401a5_1376065040045_481892_2862 {
  }
  class "RuleAnnotation" as C__17_0_5_1_a250249_1490825319944_794418_4005 {
    +text : String [0..1]
  }
  class "RuleAnnotationClause" as C__17_0_5_1_a250249_1489711894817_736837_4170 {
    +name : String
  }
  class "Some" as C__2021x_1_17c4044b_1633549076461_689241_2828 {
  }
  class "TextAnnotation" as C__17_0_2_3_ea50349_1446149596826_62480_3741 {
    +text : String
    +textFormat : String
  }
  class "TypedChildExpression" as C__2021x_1_17c4044b_1633549097200_837407_2868 {
    +typeRef : String [0..1]
  }
  class "UnaryTests" as C__17_0_2_3_ea50349_1435355730486_426171_2296 {
    +expressionLanguage : URI [0..1]
    +text : String
  }
  enum "AssociationDirection" as C__17_0_2_3_ea50349_1446149839178_181611_3787 {
    None
    One
    Both
  }
  enum "BuiltinAggregator" as C__17_0_3_1_42401a5_1375643567549_474071_3086 {
    SUM
    COUNT
    MIN
    MAX
  }
  enum "DecisionTableOrientation" as C__17_0_3_1_42401a5_1375643567533_818382_3075 {
    Rule-as-Row
    Rule-as-Column
    CrossTable
  }
  enum "FunctionKind" as C__17_0_5_1_a250249_1502923094146_996457_3985 {
    FEEL
    Java
    PMML
    ONNX
  }
  enum "HitPolicy" as C__17_0_3_1_42401a5_1375643567549_981517_3077 {
    UNIQUE
    FIRST
    PRIORITY
    ANY
    COLLECT
    RULE ORDER
    OUTPUT ORDER
  }
}

package "BMM" {
  class "Objective" as C__17_0_2_3_ea50349_1435268843602_88699_2217 {
  }
}

package "BPMN20" {
  class "Process" as C__17_0_2_3_ea50349_1435268832194_670602_2213 {
  }
  class "Task" as C__17_0_2_3_ea50349_1435268824892_950814_2209 {
  }
}

package "DMNDI" {
  class "DMNDI" as C__17_0_5_1_a250249_1518651646564_243499_3956 {
  }
}

C__17_0_3_1_42401a5_1375643567533_785225_3034 <|-- C__17_0_3_1_42401a5_1375643567487_81965_3021
C__17_0_2_3_ea50349_1436221723919_427603_4116 <|-- C__17_0_3_1_42401a5_1375643567533_707974_3032
C__17_0_2_3_ea50349_1436221723919_427603_4116 <|-- C__17_0_3_1_42401a5_1375643567471_779757_3017
C__17_0_3_1_42401a5_1375643567487_57930_3022 <|-- C__17_0_3_1_42401a5_1375643567471_416068_3018
C__17_0_3_1_42401a5_1375643567533_785225_3034 <|-- C__17_0_3_1_42401a5_1375643567533_356231_3074
C__17_0_3_1_42401a5_1375643567533_785225_3034 <|-- C__17_0_3_1_42401a5_1375643567533_685035_3031
C__17_0_2_3_ea50349_1436221723919_427603_4116 <|-- C__17_0_3_1_42401a5_1375643567471_704658_3020
C__17_0_3_1_42401a5_1375643567487_57930_3022 <|-- C__17_0_3_1_42401a5_1375643567518_778757_3029
C__17_0_3_1_42401a5_1375643567533_685035_3031 <|-- C__17_0_3_1_42401a5_1375643567518_521440_3023
C__17_0_3_1_42401a5_1375643567471_704933_3016 <|-- C__17_0_3_1_42401a5_1375643567518_889981_3027
C__17_0_2_3_ea50349_1436221723919_427603_4116 <|-- C__17_0_3_1_42401a5_1375643567518_968543_3026
C__17_0_3_1_42401a5_1375643567533_785225_3034 <|-- C__17_0_3_1_42401a5_1375643567533_147800_3033
C__17_0_2_3_ea50349_1436221723919_427603_4116 <|-- C__17_0_3_1_42401a5_1375643567518_346753_3024
C__17_0_2_3_ea50349_1436221723919_427603_4116 <|-- C__17_0_3_1_42401a5_1375643567487_57930_3022
C__17_0_3_1_42401a5_1375643567487_57930_3022 <|-- C__17_0_3_1_42401a5_1375643567471_970532_3014
C__17_0_3_1_42401a5_1375643567533_785225_3034 <|-- C__17_0_3_1_42401a5_1375643567533_326599_3076
C__17_0_3_1_42401a5_1375643567533_685035_3031 <|-- C__17_0_3_1_42401a5_1375643567533_722733_3073
C__17_0_3_1_42401a5_1375643567533_685035_3031 <|-- C__17_0_3_1_42401a5_1375643567518_12261_3030
C__17_0_3_1_42401a5_1375643567533_785225_3034 <|-- C__17_0_3_1_42401a5_1375643567518_966437_3025
C__17_0_5_1_a250249_1491345194592_541539_3976 <|-- C__17_0_3_1_42401a5_1375643567518_805465_3028
C__17_0_2_3_ea50349_1436221723919_427603_4116 <|-- C__17_0_3_1_42401a5_1375643567471_704933_3016
C__17_0_3_1_42401a5_1375643567471_704933_3016 <|-- C__17_0_3_1_42401a5_1375643567471_164263_3015
C__17_0_3_1_42401a5_1375643567533_685035_3031 <|-- C__17_0_3_1_42401a5_1376065040041_514072_2858
C__17_0_3_1_42401a5_1375643567533_685035_3031 <|-- C__17_0_3_1_42401a5_1376065040042_783613_2859
C__17_0_3_1_42401a5_1375643567533_785225_3034 <|-- C__17_0_3_1_42401a5_1376065040043_665764_2860
C__17_0_3_1_42401a5_1375643567533_685035_3031 <|-- C__17_0_3_1_42401a5_1376065040044_287935_2861
C__17_0_3_1_42401a5_1375643567533_685035_3031 <|-- C__17_0_3_1_42401a5_1376065040045_481892_2862
C__17_0_3_1_42401a5_1375643567533_785225_3034 <|-- C__17_0_2_3_ea50349_1435270731630_237729_3380
C__17_0_3_1_42401a5_1375643567533_685035_3031 <|-- C__17_0_2_3_ea50349_1435355730486_426171_2296
C__17_0_3_1_42401a5_1375643567533_785225_3034 <|-- C__17_0_2_3_ea50349_1436221723919_427603_4116
C__17_0_3_1_42401a5_1375643567518_968543_3026 <|-- C__17_0_2_3_ea50349_1438213998731_424666_2410
C__17_0_5_1_a250249_1491345194592_541539_3976 <|-- C__17_0_2_3_ea50349_1446061872919_943804_4285
C__17_0_3_1_42401a5_1375643567533_785225_3034 <|-- C__17_0_2_3_ea50349_1446148893171_814063_3320
C__17_0_2_3_ea50349_1446148893171_814063_3320 <|-- C__17_0_2_3_ea50349_1446149593384_597231_3718
C__17_0_2_3_ea50349_1446148893171_814063_3320 <|-- C__17_0_2_3_ea50349_1446149596826_62480_3741
C__17_0_3_1_42401a5_1375643567487_57930_3022 <|-- C__17_0_5_1_a250249_1491345194592_541539_3976
C__17_0_2_3_ea50349_1446148893171_814063_3320 <|-- C__17_0_5_1_63c021c_1555996107355_533785_3718
C__17_0_3_1_42401a5_1375643567533_785225_3034 <|-- C__17_0_5_1_a250249_1570480208079_716058_5167
C__17_0_3_1_42401a5_1375643567533_685035_3031 <|-- C__2021x_1_17c4044b_1633546941899_386399_1784
C__17_0_3_1_42401a5_1375643567533_685035_3031 <|-- C__2021x_1_17c4044b_1633546981223_825324_1819
C__17_0_3_1_42401a5_1375643567533_685035_3031 <|-- C__2021x_1_17c4044b_1633547026114_611120_1867
C__2021x_1_17c4044b_1633546981223_825324_1819 <|-- C__2021x_1_17c4044b_1633549030307_422373_2718
C__2021x_1_17c4044b_1633546981223_825324_1819 <|-- C__2021x_1_17c4044b_1633549042213_958987_2756
C__2021x_1_17c4044b_1633549042213_958987_2756 <|-- C__2021x_1_17c4044b_1633549068199_322352_2794
C__2021x_1_17c4044b_1633549042213_958987_2756 <|-- C__2021x_1_17c4044b_1633549076461_689241_2828
C__2021x_1_17c4044b_1633546848140_954943_1751 <|-- C__2021x_1_17c4044b_1633549097200_837407_2868

C__17_0_3_1_42401a5_1375643567471_416068_3018 --> "0..1" C__17_0_3_1_42401a5_1375643567518_889981_3027 : owner
C__17_0_3_1_42401a5_1375643567471_704658_3020 --> "0..1" C__17_0_3_1_42401a5_1375643567533_685035_3031 : defaultValue

C__17_0_3_1_42401a5_1375643567518_778757_3029 --> "0..1" C__17_0_3_1_42401a5_1375643567533_685035_3031 : decision
C__17_0_3_1_42401a5_1375643567471_779757_3017 --> "1" C__17_0_3_1_42401a5_1375643567533_707974_3032 : definitions
C__17_0_3_1_42401a5_1375643567487_81965_3021 --> "0..1" C__17_0_3_1_42401a5_1375643567518_778757_3029 : requiredDecision
C__17_0_3_1_42401a5_1375643567533_722733_3073 --> "1" C__17_0_3_1_42401a5_1375643567533_356231_3074 : decisionTable
C__17_0_2_3_ea50349_1435270731630_237729_3380 --> "0..1" C__17_0_3_1_42401a5_1375643567533_707974_3032 : outputDefinition
C__17_0_3_1_42401a5_1375643567518_966437_3025 --> "1" C__17_0_5_1_a250249_1491345194592_541539_3976 : requiredKnowledge
C__17_0_3_1_42401a5_1375643567518_778757_3029 --> "0..*" C__17_0_3_1_42401a5_1375643567518_889981_3027 : decisionOwned
C__17_0_3_1_42401a5_1375643567471_779757_3017 --> "0..1" C__17_0_3_1_42401a5_1375643567518_968543_3026 : definitions
C__17_0_3_1_42401a5_1375643567471_779757_3017 --> "1" C__17_0_3_1_42401a5_1375643567518_346753_3024 : definitions
C__17_0_3_1_42401a5_1375643567487_81965_3021 --> "0..1" C__17_0_3_1_42401a5_1375643567471_970532_3014 : requiredInput
C__17_0_3_1_42401a5_1375643567518_778757_3029 --> "0..1" C__17_0_3_1_42401a5_1375643567518_966437_3025 : decision
C__17_0_3_1_42401a5_1375643567533_326599_3076 --> "0..1" C__17_0_3_1_42401a5_1375643567518_12261_3030 : expressionInput
C__17_0_3_1_42401a5_1375643567471_779757_3017 --> "1" C__17_0_3_1_42401a5_1375643567487_57930_3022 : definitions
C__17_0_3_1_42401a5_1375643567533_707974_3032 --> "0..1" C__17_0_2_3_ea50349_1435355730486_426171_2296 : allowedInItemDefinition
C__17_0_3_1_42401a5_1375643567518_805465_3028 --> "0..1" C__17_0_3_1_42401a5_1375643567487_81965_3021 : bkm
C__17_0_3_1_42401a5_1375643567518_521440_3023 --> "1" C__17_0_3_1_42401a5_1375643567471_547100_3019 : invocation
C__17_0_3_1_42401a5_1375643567471_547100_3019 --> "0..1" C__17_0_3_1_42401a5_1375643567533_685035_3031 : binding
C__17_0_3_1_42401a5_1375643567518_778757_3029 --> "0..*" C__17_0_3_1_42401a5_1375643567518_889981_3027 : decisionMade
C__17_0_3_1_42401a5_1375643567487_81965_3021 --> "0..1" C__17_0_3_1_42401a5_1375643567471_416068_3018 : requiredAuthority
C__17_0_3_1_42401a5_1375643567518_778757_3029 --> "0..1" C__17_0_3_1_42401a5_1375643567487_81965_3021 : decision
C__17_0_3_1_42401a5_1375643567518_805465_3028 --> "0..1" C__17_0_3_1_42401a5_1375643567518_966437_3025 : bkm
C__17_0_3_1_42401a5_1375643567471_704658_3020 --> "0..1" C__17_0_3_1_42401a5_1375643567533_685035_3031 : valueExpression
C__17_0_3_1_42401a5_1375643567471_547100_3019 --> "0..*" C__17_0_3_1_42401a5_1375643567471_704658_3020 : binding
C__17_0_3_1_42401a5_1375643567533_356231_3074 --> "0..1" C__17_0_3_1_42401a5_1375643567518_12261_3030 : ruleOutput
C__17_0_3_1_42401a5_1375643567533_722733_3073 --> "1" C__17_0_3_1_42401a5_1375643567533_326599_3076 : decisionTable
C__17_0_3_1_42401a5_1375643567518_346753_3024 --> "0..*" C__17_0_3_1_42401a5_1375643567487_57930_3022 : drgElement
C__17_0_3_1_42401a5_1375643567518_778757_3029 --> "0..*" C__17_0_3_1_42401a5_1375643567471_164263_3015 : impactingDecision
C__17_0_3_1_42401a5_1375643567518_778757_3029 --> "0..1" C__17_0_3_1_42401a5_1375643567471_704658_3020 : decisionOutput
C__17_0_3_1_42401a5_1375643567471_779757_3017 --> "1" C__17_0_3_1_42401a5_1375643567471_704933_3016 : definitions
C__17_0_3_1_42401a5_1375643567518_778757_3029 --> "1" C__17_0_3_1_42401a5_1375643567533_147800_3033 : decision
C__17_0_3_1_42401a5_1375643567471_416068_3018 --> "0..1" C__17_0_3_1_42401a5_1375643567487_81965_3021 : knowledgeSource
C__17_0_3_1_42401a5_1376065040042_783613_2859 --> "0..1" C__17_0_3_1_42401a5_1376065040043_665764_2860 : context
C__17_0_3_1_42401a5_1376065040045_481892_2862 --> "0..1" C__17_0_3_1_42401a5_1375643567471_704658_3020 : relation
C__17_0_3_1_42401a5_1376065040045_481892_2862 --> "0..1" C__17_0_3_1_42401a5_1376065040044_287935_2861 : relation
C__17_0_3_1_42401a5_1375643567533_685035_3031 *--> "0..*" C__17_0_3_1_42401a5_1376065040044_287935_2861 : element
C__17_0_3_1_42401a5_1375643567471_704658_3020 *--> "0..*" C__17_0_3_1_42401a5_1376065040041_514072_2858 : formalParameter
C__17_0_3_1_42401a5_1375643567533_685035_3031 *--> "0..1" C__17_0_3_1_42401a5_1376065040041_514072_2858 : body
C__17_0_3_1_42401a5_1375643567471_704658_3020 *--> "0..1" C__17_0_3_1_42401a5_1376065040043_665764_2860 : variable
C__17_0_3_1_42401a5_1375643567533_685035_3031 *--> "1" C__17_0_3_1_42401a5_1376065040043_665764_2860 : value
C__17_0_3_1_42401a5_1375643567471_970532_3014 --> "0..1" C__17_0_3_1_42401a5_1375643567471_704658_3020 : inputData
C__17_0_3_1_42401a5_1375643567533_722733_3073 --> "1" C__17_0_2_3_ea50349_1435270731630_237729_3380 : DecisionTableOutputs
C__17_0_3_1_42401a5_1375643567533_356231_3074 --> "1" C__17_0_2_3_ea50349_1435355730486_426171_2296 : ruleInput
C__17_0_3_1_42401a5_1375643567533_707974_3032 --> "0..1" C__17_0_3_1_42401a5_1375643567533_707974_3032 : containingDefinition
C__17_0_3_1_42401a5_1375643567533_326599_3076 --> "1" C__17_0_2_3_ea50349_1435355730486_426171_2296 : input
C__17_0_2_3_ea50349_1435270731630_237729_3380 --> "0..1" C__17_0_2_3_ea50349_1435355730486_426171_2296 : output
C__17_0_2_3_ea50349_1435270731630_237729_3380 --> "0..1" C__17_0_3_1_42401a5_1375643567518_12261_3030 : output
C__17_0_3_1_42401a5_1375643567518_805465_3028 --> "0..1" C__17_0_3_1_42401a5_1376065040041_514072_2858 : bkm
C__17_0_3_1_42401a5_1375643567518_12261_3030 --> "1" C__17_0_2_3_ea50349_1438213998731_424666_2410 : LiteralExpression2ImportedValues
C__17_0_3_1_42401a5_1375643567518_521440_3023 --> "0..1" C__17_0_3_1_42401a5_1375643567533_685035_3031 : caller
C__17_0_3_1_42401a5_1375643567471_704658_3020 --> "0..1" C__17_0_3_1_42401a5_1375643567533_707974_3032 : type
C__17_0_3_1_42401a5_1375643567533_685035_3031 --> "0..1" C__17_0_3_1_42401a5_1375643567533_707974_3032 : type
C__17_0_5_1_a250249_1491345194592_541539_3976 *--> "0..1" C__17_0_3_1_42401a5_1375643567471_704658_3020 : variable
C__17_0_2_3_ea50349_1446061872919_943804_4285 --> "0..*" C__17_0_3_1_42401a5_1375643567518_778757_3029 : outputDecision
C__17_0_2_3_ea50349_1446061872919_943804_4285 --> "0..*" C__17_0_3_1_42401a5_1375643567518_778757_3029 : encapsulatedDecision
C__17_0_2_3_ea50349_1446061872919_943804_4285 --> "0..*" C__17_0_3_1_42401a5_1375643567518_778757_3029 : inputDecision
C__17_0_2_3_ea50349_1446061872919_943804_4285 --> "0..*" C__17_0_3_1_42401a5_1375643567471_970532_3014 : inputData
C__17_0_3_1_42401a5_1375643567533_785225_3034 --> "1" C__17_0_2_3_ea50349_1446065137709_415078_5036 : element
C__17_0_3_1_42401a5_1375643567533_785225_3034 --> "1" C__17_0_2_3_ea50349_1446065085526_636721_5008 : element
C__17_0_2_3_ea50349_1446065137709_415078_5036 --> "1" C__17_0_2_3_ea50349_1446066767165_84469_5739 : extensionAttribute
C__17_0_2_3_ea50349_1446065137709_415078_5036 --> "0..1" C__17_0_2_3_ea50349_1446066767165_84469_5739 : valueRef
C__17_0_2_3_ea50349_1446065085526_636721_5008 --> "1" C__17_0_2_3_ea50349_1446066767165_84469_5739 : elements
C__17_0_3_1_42401a5_1375643567471_779757_3017 --> "1" C__17_0_2_3_ea50349_1446148893171_814063_3320 : definitions
C__17_0_2_3_ea50349_1446149593384_597231_3718 --> "1" C__17_0_3_1_42401a5_1375643567533_785225_3034 : sourceRef
C__17_0_2_3_ea50349_1446149593384_597231_3718 --> "1" C__17_0_3_1_42401a5_1375643567533_785225_3034 : targetRef
C__17_0_3_1_42401a5_1375643567533_722733_3073 --> "1" C__17_0_5_1_a250249_1489711894817_736837_4170 : DecisionTableAnnotations
C__17_0_3_1_42401a5_1375643567533_356231_3074 --> "1" C__17_0_5_1_a250249_1490825319944_794418_4005 : ruleAnnotation
C__17_0_3_1_42401a5_1375643567471_779757_3017 --> "1" C__17_0_5_1_a250249_1518651646564_243499_3956
C__17_0_3_1_42401a5_1375643567533_707974_3032 --> "1" C__17_0_5_1_a250249_1570480208079_716058_5167 : ItemDefinition2FunctionItem
C__17_0_5_1_a250249_1570480208079_716058_5167 --> "0..1" C__17_0_3_1_42401a5_1375643567471_704658_3020 : FunctionItem2InformationItem
C__17_0_5_1_a250249_1570480208079_716058_5167 --> "0..1" C__17_0_3_1_42401a5_1375643567533_707974_3032 : outputType
C__2021x_1_17c4044b_1633547026114_611120_1867 *--> "1" C__2021x_1_17c4044b_1633546848140_954943_1751 : then
C__2021x_1_17c4044b_1633547026114_611120_1867 *--> "1" C__2021x_1_17c4044b_1633546848140_954943_1751 : else
C__2021x_1_17c4044b_1633546941899_386399_1784 *--> "1" C__2021x_1_17c4044b_1633546848140_954943_1751 : in
C__2021x_1_17c4044b_1633546941899_386399_1784 *--> "1" C__2021x_1_17c4044b_1633546848140_954943_1751 : match
C__2021x_1_17c4044b_1633546848140_954943_1751 *--> "1" C__17_0_3_1_42401a5_1375643567533_685035_3031 : value
C__2021x_1_17c4044b_1633546981223_825324_1819 *--> "1" C__2021x_1_17c4044b_1633549097200_837407_2868 : in
C__2021x_1_17c4044b_1633549030307_422373_2718 *--> "1" C__2021x_1_17c4044b_1633546848140_954943_1751 : return
C__2021x_1_17c4044b_1633549042213_958987_2756 *--> "1" C__2021x_1_17c4044b_1633546848140_954943_1751 : satisfies
C__2021x_1_17c4044b_1633547026114_611120_1867 *--> "1" C__2021x_1_17c4044b_1633546848140_954943_1751 : if
C__17_0_3_1_42401a5_1375643567533_707974_3032 --> "0..1" C__17_0_2_3_ea50349_1435355730486_426171_2296
C__17_0_3_1_42401a5_1375643567533_147800_3033 --> "0..1" C__17_0_3_1_42401a5_1375643567518_778757_3029 : requiredDecision
C__17_0_3_1_42401a5_1375643567533_147800_3033 --> "0..1" C__17_0_3_1_42401a5_1375643567471_970532_3014 : requiredInput
C__17_0_2_3_ea50349_1435268843602_88699_2217 --> "0..*" C__17_0_3_1_42401a5_1375643567518_778757_3029 : supportedObjective
C__17_0_2_3_ea50349_1435268832194_670602_2213 --> "0..*" C__17_0_3_1_42401a5_1375643567518_778757_3029 : usingProcess
C__17_0_2_3_ea50349_1435268824892_950814_2209 --> "0..*" C__17_0_3_1_42401a5_1375643567518_778757_3029 : usingTask

@enduml
