@startuml DMNDI
title DMNDI
hide empty members
skinparam classAttributeIconSize 0
skinparam linetype ortho
left to right direction

package "DMNDI" {
  class "DC::Bounds" as C__18_1_f7a0369_1441611463140_475650_5154 {
    +height : Real
    +width : Real
    +x : Real
    +y : Real
  }
  class "DC::Color" as C__18_1_f7a0369_1441612777570_609601_5914 {
    +red : Integer
    +green : Integer
    +blue : Integer
  }
  class "DC::Dimension" as C__18_1_f7a0369_1441610001778_898090_4353 {
    +width : Real
    +height : Real
  }
  class "DC::Point" as C__18_1_f7a0369_1441611905896_227631_5363 {
    +x : Real
    +y : Real
  }
  class "DI::Diagram" as C__18_1_f7a0369_1441609977535_10427_4352 {
    +name : String
    +documentation : String
    +resolution : Real
  }
  abstract class "DI::DiagramElement" as C__18_1_f7a0369_1441609962778_700532_4351 {
  }
  abstract class "DI::Edge" as C__18_1_f7a0369_1441611948783_111318_5366 {
  }
  abstract class "DI::Shape" as C__18_1_f7a0369_1441611447247_433028_5153 {
  }
  abstract class "DI::Style" as C__18_1_f7a0369_1441612964861_428140_5975 {
    +id : String
  }
  abstract class "DMN::DMNElement" as C__18_1_f7a0369_1441610053192_275683_4354 {
  }
  class "DMNDI" as C__18_1_f7a0369_1441609424894_950143_4144 {
  }
  class "DMNDecisionServiceDividerLine" as C__19_0beta_610020e_1518100496563_982994_4706 {
  }
  class "DMNDiagram" as C__18_1_f7a0369_1441609450101_395564_4146 {
    +useAlternativeInputDataShape : Boolean
  }
  abstract class "DMNDiagramElement" as C__18_1_f7a0369_1441609931873_130928_4350 {
  }
  class "DMNEdge" as C__18_1_f7a0369_1441611960746_74439_5367 {
  }
  class "DMNLabel" as C__18_1_f7a0369_1441610984130_739437_4940 {
    +text : String
  }
  class "DMNShape" as C__18_1_f7a0369_1441611599176_588668_5191 {
    +isListedInputData : Boolean [0..1]
    +isCollapsed : Boolean [0..1]
  }
  class "DMNStyle" as C__18_1_f7a0369_1441609437623_926913_4145 {
    +id : String
    +fontSize : Real
    +fontFamily : String
    +fontItalic : Boolean
    +fontBold : Boolean
    +fontUnderline : Boolean
    +fontStrikeThrough : Boolean
    +labelHorizontalAlignment : DC::AlignmentKind
    +labelVerticalAlignment : DC::AlignmentKind
  }
  class "ExtensionElements" as C__2026x_17c4044b_1772053889484_705428_1370 {
  }
  class "ID" as C__2026x_17c4044b_1772052772967_388722_1668 {
  }
  enum "DC::AlignmentKind" as C__18_1_f7a0369_1441612881498_526544_5946 {
    start
    center
    end
  }
}

C__18_1_f7a0369_1441612964861_428140_5975 <|-- C__18_1_f7a0369_1441609437623_926913_4145
C__18_1_f7a0369_1441609977535_10427_4352 <|-- C__18_1_f7a0369_1441609450101_395564_4146
C__18_1_f7a0369_1441609962778_700532_4351 <|-- C__18_1_f7a0369_1441609931873_130928_4350
C__18_1_f7a0369_1441609962778_700532_4351 <|-- C__18_1_f7a0369_1441609977535_10427_4352
C__18_1_f7a0369_1441611447247_433028_5153 <|-- C__18_1_f7a0369_1441610984130_739437_4940
C__18_1_f7a0369_1441611447247_433028_5153 <|-- C__18_1_f7a0369_1441611599176_588668_5191
C__18_1_f7a0369_1441609931873_130928_4350 <|-- C__18_1_f7a0369_1441611599176_588668_5191
C__18_1_f7a0369_1441609931873_130928_4350 <|-- C__18_1_f7a0369_1441611960746_74439_5367
C__18_1_f7a0369_1441611948783_111318_5366 <|-- C__18_1_f7a0369_1441611960746_74439_5367
C__18_1_f7a0369_1441611948783_111318_5366 <|-- C__19_0beta_610020e_1518100496563_982994_4706

C__18_1_f7a0369_1441609437623_926913_4145 --> "1" C__18_1_f7a0369_1441612777570_609601_5914 : fillColor
C__18_1_f7a0369_1441609437623_926913_4145 --> "1" C__18_1_f7a0369_1441612777570_609601_5914 : strokeColor
C__18_1_f7a0369_1441609437623_926913_4145 --> "1" C__18_1_f7a0369_1441612777570_609601_5914 : fontColor
C__18_1_f7a0369_1441609962778_700532_4351 --> "0..1" C__2026x_17c4044b_1772052772967_388722_1668 : id

C__18_1_f7a0369_1441609424894_950143_4144 *--> "0..*" C__18_1_f7a0369_1441609450101_395564_4146 : diagrams
C__18_1_f7a0369_1441609424894_950143_4144 *--> "0..*" C__18_1_f7a0369_1441609437623_926913_4145 : styles
C__18_1_f7a0369_1441609450101_395564_4146 --> "0..1" C__18_1_f7a0369_1441610053192_275683_4354 : dmnElementRef
C__18_1_f7a0369_1441609450101_395564_4146 *--> "0..1" C__18_1_f7a0369_1441610001778_898090_4353 : size
C__18_1_f7a0369_1441609450101_395564_4146 *--> "0..1" C__18_1_f7a0369_1441609437623_926913_4145 : localStyle
C__18_1_f7a0369_1441609450101_395564_4146 --> "0..1" C__18_1_f7a0369_1441609437623_926913_4145 : sharedStyle
C__18_1_f7a0369_1441609450101_395564_4146 *--> "0..*" C__18_1_f7a0369_1441609931873_130928_4350 : diagramElements
C__18_1_f7a0369_1441609931873_130928_4350 --> "1" C__18_1_f7a0369_1441610053192_275683_4354 : dmnElementRef
C__18_1_f7a0369_1441609962778_700532_4351 --> "0..1" C__18_1_f7a0369_1441609437623_926913_4145 : sharedStyle
C__18_1_f7a0369_1441609962778_700532_4351 *--> "0..1" C__18_1_f7a0369_1441609437623_926913_4145 : localStyle
C__18_1_f7a0369_1441609931873_130928_4350 *--> "0..1" C__18_1_f7a0369_1441610984130_739437_4940 : label
C__18_1_f7a0369_1441611447247_433028_5153 *--> "0..1" C__18_1_f7a0369_1441611463140_475650_5154 : bounds
C__18_1_f7a0369_1441611948783_111318_5366 *--> "2..*" C__18_1_f7a0369_1441611905896_227631_5363 : waypoint
C__18_1_f7a0369_1441611599176_588668_5191 *--> "0..1" C__19_0beta_610020e_1518100496563_982994_4706 : decisionServiceDividerLine
C__18_1_f7a0369_1441611960746_74439_5367 --> "0..1" C__18_1_f7a0369_1441609931873_130928_4350 : sourceElement
C__18_1_f7a0369_1441611960746_74439_5367 --> "0..1" C__18_1_f7a0369_1441609931873_130928_4350 : targetElement
C__18_1_f7a0369_1441609962778_700532_4351 *--> "0..*" C__2026x_17c4044b_1772053889484_705428_1370 : extension

@enduml
